<?xml version="1.0" encoding="utf-8"?>
<!DOCTYPE svg PUBLIC "-//W3C//DTD SVG 1.1//EN" "http://www.w3.org/Graphics/SVG/1.1/DTD/svg11.dtd">
<svg version="1.1" id="SharpZipLib-logo-color" xmlns="http://www.w3.org/2000/svg" x="0px" y="0px"
	 width="256px" height="256px" viewBox="0 0 256 256">
    <style type="text/css">
    <![CDATA[
        .inner-circle {fill:#3d4852;}
        .text {fill:#ffffff}
    ]]>
    </style>
    <g>
        <circle class="inner-circle" cx="129" cy="128" r="126.5" fill="#3d4852"/>
		<g class="text">
			<path d="M149.377,95.543c0.859,0.859,1.893,1.549,3.068,2.048c1.197,0.507,2.447,0.753,3.824,0.753
				c1.357,0,2.635-0.254,3.793-0.753s2.182-1.188,3.037-2.048c0.861-0.858,1.539-1.881,2.018-3.04c0.488-1.18,0.725-2.4,0.725-3.731
				c0-1.313-0.244-2.569-0.725-3.732c-0.479-1.157-1.156-2.19-2.018-3.068c-0.865-0.89-1.859-1.568-3.039-2.078
				c-1.16-0.499-2.436-0.752-3.791-0.752c-1.371,0-2.621,0.245-3.824,0.752c-1.195,0.509-2.199,1.188-3.068,2.077
				c-0.867,0.888-1.527,1.89-2.018,3.069c-0.484,1.178-0.721,2.398-0.721,3.732c0,1.336,0.234,2.555,0.721,3.732
				C147.85,93.682,148.51,94.677,149.377,95.543z"/>
			<path d="M225.586,115.643c-1.375-3.093-3.42-5.735-6.078-7.854c-2.656-2.118-5.979-3.749-9.873-4.848
				c-3.896-1.098-8.443-1.654-13.514-1.654h-19.063c-1.104,0-2,0.896-2,2v46.317h-10.422v-46.317c0-1.104-0.895-2-2-2h-17.074
				c-1.105,0-2,0.896-2,2v6.957c0,1.104,0.895,2,2,2h4.025v37.36h-19.184c-0.07,0-0.131,0.003-0.199,0.01h-22.291l28.859-38.847
				c0.256-0.346,0.395-0.764,0.395-1.193v-6.285c0-1.104-0.896-2-2-2H94.363c-0.1-0.016-0.199-0.022-0.3-0.022H83.647l1.701-16.698
				c0.058-0.563-0.126-1.123-0.505-1.543c-0.38-0.42-0.919-0.66-1.484-0.66h-7.778c-1.026,0-1.886,0.777-1.989,1.798l-1.743,17.104
				H57.944l1.701-16.698c0.058-0.563-0.126-1.123-0.505-1.543c-0.38-0.42-0.919-0.66-1.484-0.66h-7.778
				c-1.026,0-1.886,0.777-1.989,1.798l-1.743,17.104h-9.317c-1.104,0-2,0.896-2,2v7.017c0,1.104,0.896,2,2,2h8.233l-1.745,17.275
				h-9.679c-1.104,0-2,0.896-2,2v7.016c0,1.104,0.896,2,2,2h8.595l-1.879,18.261c-0.059,0.563,0.125,1.125,0.505,1.545
				c0.379,0.42,0.918,0.66,1.484,0.66h7.772c1.027,0,1.888-0.778,1.99-1.801l1.866-18.665h13.964l-1.879,18.261
				c-0.059,0.563,0.125,1.125,0.505,1.545c0.379,0.42,0.918,0.66,1.484,0.66h7.772c1.027,0,1.888-0.778,1.99-1.801l1.866-18.665
				h9.497c1.104,0,2-0.896,2-2v-7.016c0-1.104-0.896-2-2-2h-8.354l1.745-17.275h11.671c0.038,0,0.088-0.002,0.126-0.004h23.428
				l-29.499,37.986c-0.272,0.351-0.42,0.782-0.42,1.227v7.548c0,1.104,0.896,2,2,2h85.19v23.785c0,1.104,0.896,2,2,2h10.928
				c1.104,0,2-0.896,2-2v-23.281h5.533c5.273,0,9.973-0.709,13.965-2.106c3.996-1.399,7.377-3.385,10.053-5.899
				c2.678-2.518,4.723-5.546,6.08-8.999c1.281-3.256,2.047-9.965,2.047-14.569C227.664,125.919,226.941,118.687,225.586,115.643z
				 M198.234,149.265h-8.248V112.57h7.766c2.797,0,5.246,0.324,7.285,0.964c2.031,0.637,3.742,1.567,5.086,2.769
				c1.336,1.194,2.348,2.662,3.008,4.363c0.686,1.762,0.994,8.518,0.994,10.327c0,2.389-0.352,7.579-1.051,9.421
				c-0.703,1.839-1.736,3.439-3.074,4.757c-1.336,1.319-3.006,2.342-4.965,3.039C203.076,148.91,200.789,149.265,198.234,149.265z
				 M56.86,112.283h13.904l-1.745,17.275H55.113L56.86,112.283z"/>
		</g>
    </g>
</svg>
